<?xml version="1.0" standalone="no"?>
<!DOCTYPE svg PUBLIC "-//W3C//DTD SVG 20010904//EN"
 "http://www.w3.org/TR/2001/REC-SVG-20010904/DTD/svg10.dtd">
<svg version="1.0" xmlns="http://www.w3.org/2000/svg"
 width="270.000000pt" height="270.000000pt" viewBox="0 0 270.000000 270.000000"
 preserveAspectRatio="xMidYMid meet">
<metadata>
Created by potrace 1.11, written by Peter Selinger 2001-2013
</metadata>
<g transform="translate(0.000000,270.000000) scale(0.100000,-0.100000)"
fill="#000000" stroke="none">
<path d="M1096 2527 c-9 -46 9 -112 39 -153 13 -16 51 -45 85 -63 37 -20 69
-46 81 -64 38 -63 17 -162 -48 -238 -67 -76 -71 -131 -18 -205 43 -60 58 -93
50 -113 -9 -26 33 31 46 62 13 30 7 48 -43 125 -20 33 -20 34 -2 52 10 10 55
33 99 51 60 25 94 47 137 89 51 49 58 61 58 95 0 57 -34 117 -99 177 -71 66
-132 96 -224 112 -91 16 -112 28 -135 73 l-19 36 -7 -36z"/>
<path d="M1003 1615 c-115 -21 -232 -64 -275 -103 -23 -19 -23 -55 0 -74 19
-17 96 -58 109 -58 4 0 -10 11 -33 25 -22 13 -45 35 -51 48 -10 21 -8 28 10
45 84 77 307 120 562 109 152 -7 245 -23 324 -58 51 -22 111 -78 111 -103 0
-36 -92 -81 -265 -130 -11 -3 3 -3 30 0 128 15 275 86 275 133 0 62 -183 141
-395 170 -102 15 -313 12 -402 -4z"/>
<path d="M1024 1490 c-92 -8 -116 -13 -166 -32 -35 -13 -36 -41 -3 -56 34 -16
46 -15 39 2 -3 8 4 21 18 29 27 18 116 37 161 36 25 0 19 -4 -27 -15 -65 -16
-96 -37 -96 -65 0 -30 117 -44 375 -44 193 0 239 3 288 18 95 29 85 62 -28 91
-135 33 -398 51 -561 36z m129 -17 c-7 -2 -19 -2 -25 0 -7 3 -2 5 12 5 14 0
19 -2 13 -5z m349 -24 c62 -13 93 -30 109 -61 l12 -23 -25 22 c-33 31 -99 52
-194 62 l-79 8 62 2 c34 0 86 -4 115 -10z"/>
<path d="M1905 1423 c-11 -2 -38 -11 -60 -19 -27 -11 -41 -12 -43 -5 -2 6 -22
-5 -44 -24 -66 -56 -183 -87 -392 -104 -203 -17 -212 -42 -69 -199 94 -104
116 -142 117 -203 1 -63 -23 -95 -104 -137 -35 -18 -66 -35 -69 -38 -3 -3 28
-5 70 -2 65 3 88 9 162 46 94 46 149 99 208 199 65 108 119 264 119 340 0 27
6 36 33 50 18 9 56 17 85 17 47 1 57 -2 79 -28 31 -37 27 -77 -15 -138 -31
-44 -188 -201 -277 -276 -34 -29 1 -10 114 60 90 57 177 115 193 131 78 78
110 200 69 264 -11 18 -33 38 -48 46 -32 17 -99 27 -128 20z m118 -73 c60 -47
39 -147 -50 -238 -44 -45 -46 -47 -14 -9 53 60 80 120 81 174 0 62 -21 78
-115 86 -32 3 -28 4 16 5 43 2 62 -3 82 -18z"/>
<path d="M2027 944 c67 -33 123 -94 123 -134 0 -115 -277 -222 -678 -261 -158
-16 -604 -6 -742 16 -189 29 -355 77 -440 127 l-35 20 20 -22 c56 -62 267
-133 510 -172 168 -26 602 -36 797 -18 342 31 597 106 683 201 32 36 36 46 31
77 -10 63 -95 125 -235 171 -86 28 -96 26 -34 -5z"/>
<path d="M1623 752 c26 -29 18 -53 -27 -78 -73 -41 -185 -58 -381 -59 -201 0
-317 18 -393 60 -24 14 -42 19 -40 12 7 -22 94 -58 180 -74 103 -20 459 -23
563 -5 153 26 231 63 209 99 -11 18 -58 45 -104 58 -25 8 -25 7 -7 -13z"/>
<path d="M1880 503 c-97 -38 -316 -91 -446 -108 -201 -26 -436 -17 -610 25
-91 21 -111 19 -32 -5 155 -46 410 -66 588 -46 186 21 395 75 541 140 63 28
36 24 -41 -6z"/>
<path d="M2090 439 c41 -23 81 -46 88 -51 18 -15 16 12 -4 41 -21 29 -72 51
-121 51 -38 0 -38 0 37 -41z"/>
<path d="M1999 428 c16 -44 114 -91 156 -74 33 12 -98 96 -150 96 -11 0 -12
-6 -6 -22z"/>
<path d="M1840 402 c-44 -21 -51 -54 -17 -77 77 -50 211 -9 177 55 -10 19 -65
40 -105 40 -11 0 -36 -8 -55 -18z m135 -42 c13 -6 -12 -9 -72 -9 -56 -1 -93 3
-93 9 0 12 137 12 165 0z"/>
<path d="M1577 303 c11 -32 37 -55 88 -79 27 -13 51 -21 53 -19 13 13 -14 59
-50 85 -47 34 -101 42 -91 13z"/>
<path d="M1547 296 c-17 -43 54 -114 123 -123 48 -7 55 12 9 21 -30 6 -93 61
-115 101 -10 17 -11 18 -17 1z"/>
<path d="M1811 234 c-24 -31 -25 -35 -10 -68 26 -57 63 -23 57 53 -4 44 -20
49 -47 15z"/>
<path d="M1870 214 c0 -25 -5 -54 -10 -64 -15 -29 7 -36 38 -13 35 26 41 74
13 102 -31 31 -41 26 -41 -25z"/>
</g>
</svg>
